HIERARCHY
ROOT Hips
{
  OFFSET 43.0842 91.1655 101.099
  CHANNELS 6 Xposition Yposition Zposition Zrotation Xrotation Yrotation
  JOINT LeftUpLeg
  {
    OFFSET 8.64259 1.95398 -2.38835
    CHANNELS 3 Zrotation Xrotation Yrotation
    JOINT LeftLeg
    {
      OFFSET 43.7702 0 0
      CHANNELS 3 Zrotation Xrotation Yrotation
      JOINT LeftFoot
      {
        OFFSET 40.6238 0 0
        CHANNELS 3 Zrotation Xrotation Yrotation
        JOINT LeftToeBase
        {
          OFFSET 12.7242 0 0
          CHANNELS 3 Zrotation Xrotation Yrotation
          End Site
          {
            OFFSET 0 0 0
          }
        }
      }
    }
  }
  JOINT RightUpLeg
  {
    OFFSET -8.2249 1.95398 -2.59336
    CHANNELS 3 Zrotation Xrotation Yrotation
    JOINT RightLeg
    {
      OFFSET 43.5653 0 0
      CHANNELS 3 Zrotation Xrotation Yrotation
      JOINT RightFoot
      {
        OFFSET 40.6238 0 0
        CHANNELS 3 Zrotation Xrotation Yrotation
        JOINT RightToeBase
        {
          OFFSET 12.7242 0 0
          CHANNELS 3 Zrotation Xrotation Yrotation
          End Site
          {
            OFFSET 0 0 0
          }
        }
      }
    }
  }
  JOINT Spine
  {
    OFFSET 0.165834 0.87714 6.61349
    CHANNELS 3 Zrotation Xrotation Yrotation
    JOINT Spine1
    {
      OFFSET 7.38963 1.71661e-005 0
      CHANNELS 3 Zrotation Xrotation Yrotation
      JOINT Spine2
      {
        OFFSET 11.9445 1.14441e-005 0
        CHANNELS 3 Zrotation Xrotation Yrotation
        JOINT Spine3
        {
          OFFSET 14.7254 4.19617e-005 0
          CHANNELS 3 Zrotation Xrotation Yrotation
          JOINT Spine4
          {
            OFFSET 10.9679 0 0
            CHANNELS 3 Zrotation Xrotation Yrotation
            JOINT RightShoulder
            {
              OFFSET 2.46616 -1.6653 3.69651
              CHANNELS 3 Zrotation Xrotation Yrotation
              JOINT RightArm
              {
                OFFSET 13.0012 0 0
                CHANNELS 3 Zrotation Xrotation Yrotation
                JOINT RightForeArm
                {
                  OFFSET 28.7848 1.52588e-005 0
                  CHANNELS 3 Zrotation Xrotation Yrotation
                  JOINT RightHand
                  {
                    OFFSET 26.5688 1.52588e-005 0
                    CHANNELS 3 Zrotation Xrotation Yrotation
                    End Site
                    {
                      OFFSET 0 0 0
                    }
                  }
                }
              }
            }
            JOINT LeftShoulder
            {
              OFFSET 2.38034 -1.29275 -3.7523
              CHANNELS 3 Zrotation Xrotation Yrotation
              JOINT LeftArm
              {
                OFFSET 16.3182 6.10351e-005 0
                CHANNELS 3 Zrotation Xrotation Yrotation
                JOINT LeftForeArm
                {
                  OFFSET 27.0901 0 0
                  CHANNELS 3 Zrotation Xrotation Yrotation
                  JOINT LeftHand
                  {
                    OFFSET 24.5451 1.52588e-005 0
                    CHANNELS 3 Zrotation Xrotation Yrotation
                    End Site
                    {
                      OFFSET 0 0 0
                    }
                  }
                }
              }
            }
            JOINT Neck
            {
              OFFSET 5.0226 -0.0266342 0
              CHANNELS 3 Zrotation Xrotation Yrotation
              JOINT Head
              {
                OFFSET 6.69364 2.86102e-005 0
                CHANNELS 3 Zrotation Xrotation Yrotation
                End Site
                {
                  OFFSET 0 0 0
                }
              }
            }
          }
        }
      }
    }
  }
}
MOTION
Frames:	6
Frame Time:	0.0333333
127.65 90.3878 -6.02212 -92.1394 -17.3543 -93.6271 -169.791 18.6921 102.197 -23.6831 14.0159 -4.24662 56.1518 -7.33252 8.55796 31.0566 2.57011 0.609036 170.99 12.2354 76.7755 -34.4598 -3.52139 -4.32521 66.6169 -4.48098 -4.17956 45.2759 -9.1997 1.75118 -0.00581998 7.68785 -89.9758 11.4978 -0.000225767 0.048038 -0.17319 0.00188396 0.0479921 -22.7083 -0.0146673 0.0457502 -2.69568 -0.0146495 0.0457482 93.6113 -50.1852 -95.2392 2.73662 -40.9967 -43.3201 -14.5057 4.2811 -115.13 -9.71894 -1.10135 7.99482 -117.334 -64.2203 47.2386 10.1726 -59.0219 0.684468 2.06937 13.7353 -76.8566 28.8734 3.55355 -1.96232 -14.9505 20.923 14.159 -1.7101 21.2386 17.3497 
127.61 90.4057 -5.9735 -92.1453 -17.4717 -93.6983 -169.865 18.7965 102.132 -23.9506 14.2395 -4.21758 56.2098 -7.20642 8.32938 30.9067 2.00598 1.24613 170.909 12.1664 76.6959 -34.4048 -3.61596 -4.31684 66.5927 -4.41897 -4.47358 45.3006 -9.23637 1.89999 0.0906546 7.66909 -90.0837 11.5385 0.141288 -0.180272 -0.132395 0.133233 -0.186322 -22.6677 0.18892 -0.129473 -2.65502 0.188938 -0.12948 94.4259 -49.1932 -94.123 3.17369 -41.0738 -42.4721 -14.9649 4.785 -115.311 -9.3773 -0.981163 8.05432 -122.302 -65.2638 41.8765 11.8886 -57.9797 0.996898 1.69289 12.9272 -76.2074 29.2731 3.62056 -1.70632 -15.8762 20.1208 14.7119 -1.26552 20.644 17.3154 
127.52 90.355 -5.89307 -92.0539 -17.5219 -93.6188 -169.728 18.9118 102.131 -24.2031 14.4698 -4.22921 56.2165 -7.00619 8.27799 31.3225 2.7075 0.964266 170.89 12.1888 76.6954 -34.4331 -3.6281 -4.28529 66.8301 -4.51962 -4.42746 45.0726 -9.07521 1.61869 0.39007 7.59914 -90.4189 11.676 0.579428 -0.89598 0.00484979 0.539448 -0.920616 -22.5297 0.821928 -0.680414 -2.51706 0.821902 -0.680431 96.3458 -46.7485 -91.4275 4.34213 -41.2527 -39.881 -14.6515 5.86762 -116.283 -9.03774 -0.863308 8.09752 -137.912 -66.9646 25.0319 16.3308 -55.1464 1.60172 1.69986 10.04 -74.5735 28.5545 3.48769 -2.38649 -18.6705 17.8644 17.0961 0.436525 19.0471 16.6999 
127.457 90.2709 -5.75632 -92.023 -17.8049 -93.4337 -169.561 19.5335 102.21 -25.095 14.2298 -4.25101 56.3547 -6.58413 8.03107 31.63 3.18298 0.820772 170.655 12.0597 76.6774 -34.3851 -3.66876 -4.07031 67.5961 -5.1508 -4.3281 44.1106 -8.45853 0.850118 0.151327 7.59045 -90.1638 11.6947 0.224126 -0.349883 0.0237636 0.208517 -0.359419 -22.5114 0.318927 -0.266351 -2.49874 0.318936 -0.266352 95.1706 -48.9828 -92.9949 3.56097 -41.6007 -41.1129 -14.4898 5.30438 -115.664 -8.75154 -0.812993 7.2194 -124.76 -65.6553 39.194 12.8118 -56.2437 1.96745 1.33515 11.6285 -76.1007 29.2121 3.57697 -2.25071 -15.5538 19.9975 14.8372 -1.79825 20.3927 16.8494 
127.396 90.1514 -5.47182 -91.8881 -18.3782 -92.968 -169.223 20.7159 102.44 -26.6991 15.7722 -4.35312 56.7509 -5.65365 8.5003 31.9149 3.18303 1.47416 170.349 11.9898 76.7929 -34.4358 -3.36774 -3.75682 67.4696 -4.61386 -3.93384 44.4055 -8.58918 0.741046 -0.205762 7.60157 -89.7728 11.6709 -0.302618 0.484887 -0.000141492 -0.28102 0.497733 -22.5351 -0.434393 0.371514 -2.52241 -0.434332 0.371531 93.1081 -52.5104 -95.615 2.40467 -41.2657 -43.3827 -12.774 3.38095 -114.612 -9.98158 -1.2652 6.36996 -107.509 -61.2981 58.1329 6.10199 -57.4838 0.77884 2.13043 14.3923 -78.5853 30.1951 3.73201 -1.82028 -10.0162 22.9866 9.89743 -5.50861 22.3123 17.7903 
127.386 89.9453 -5.01376 -91.8397 -18.6776 -92.4324 -168.499 22.2955 102.751 -29.2965 15.1186 -4.60792 57.7997 -3.7571 8.15138 32.2644 3.07332 2.47052 170.033 11.8282 76.8206 -34.3903 -3.56994 -3.40341 67.9834 -4.90542 -3.81009 43.963 -8.2355 0.0340328 -0.445244 7.63169 -89.5765 11.6118 -0.687263 0.914972 -0.0593168 -0.646325 0.944324 -22.5944 -0.93045 0.666127 -2.58174 -0.930474 0.666121 91.1589 -53.8479 -98.2671 2.27444 -41.4355 -44.5611 -12.4423 2.67044 -113.021 -11.3403 -1.71568 6.10774 -99.5988 -57.7266 67.1869 2.68398 -58.2785 0.121318 3.1335 16.4717 -80.7178 32.3543 4.07107 -1.08157 -6.17665 24.8808 7.78908 -7.31272 23.7359 16.9494 
